<svg xmlns="http://www.w3.org/2000/svg" xmlns:xlink="http://www.w3.org/1999/xlink" width="1160.5" height="227.5" viewBox="0 0 1160.5 227.5"><defs><style>.a{fill:none;}.b{clip-path:url(#a);}.c{fill:#e7a229;}</style><clipPath id="a"><rect class="a" width="1160.5" height="227.5"/></clipPath></defs><g class="b"><g transform="translate(0 -0.004)"><g transform="translate(0 1.397)"><path class="c" d="M16.018,42.494a.7.7,0,0,0-.7.7v6.964a.7.7,0,0,1-.7.7H2.089a.7.7,0,0,1-.7-.7V36.226a.7.7,0,0,1,.7-.7h8.357a.7.7,0,1,0,0-1.393H2.089A2.089,2.089,0,0,0,0,36.226V50.155a2.089,2.089,0,0,0,2.089,2.089H14.625a2.089,2.089,0,0,0,2.089-2.089V43.191A.7.7,0,0,0,16.018,42.494Z" transform="translate(0 -34.137)"/></g><g transform="translate(4.179 0.004)"><g transform="translate(0 0)"><path class="c" d="M116.949.785a2.666,2.666,0,0,0-3.771,0l-9.173,9.173a.7.7,0,0,0-.168.272l-1.393,4.179a.7.7,0,0,0,.66.917.707.707,0,0,0,.22-.036L107.5,13.9a.7.7,0,0,0,.272-.169l9.173-9.173A2.666,2.666,0,0,0,116.949.785Z" transform="translate(-102.409 -0.004)"/></g></g></g><g transform="translate(377 -0.004)"><g transform="translate(0 1.397)"><path class="c" d="M16.018,42.494a.7.7,0,0,0-.7.7v6.964a.7.7,0,0,1-.7.7H2.089a.7.7,0,0,1-.7-.7V36.226a.7.7,0,0,1,.7-.7h8.357a.7.7,0,1,0,0-1.393H2.089A2.089,2.089,0,0,0,0,36.226V50.155a2.089,2.089,0,0,0,2.089,2.089H14.625a2.089,2.089,0,0,0,2.089-2.089V43.191A.7.7,0,0,0,16.018,42.494Z" transform="translate(0 -34.137)"/></g><g transform="translate(4.179 0.004)"><g transform="translate(0 0)"><path class="c" d="M116.949.785a2.666,2.666,0,0,0-3.771,0l-9.173,9.173a.7.7,0,0,0-.168.272l-1.393,4.179a.7.7,0,0,0,.66.917.707.707,0,0,0,.22-.036L107.5,13.9a.7.7,0,0,0,.272-.169l9.173-9.173A2.666,2.666,0,0,0,116.949.785Z" transform="translate(-102.409 -0.004)"/></g></g></g><g transform="translate(754 -0.004)"><g transform="translate(0 1.397)"><path class="c" d="M16.018,42.494a.7.7,0,0,0-.7.7v6.964a.7.7,0,0,1-.7.7H2.089a.7.7,0,0,1-.7-.7V36.226a.7.7,0,0,1,.7-.7h8.357a.7.7,0,1,0,0-1.393H2.089A2.089,2.089,0,0,0,0,36.226V50.155a2.089,2.089,0,0,0,2.089,2.089H14.625a2.089,2.089,0,0,0,2.089-2.089V43.191A.7.7,0,0,0,16.018,42.494Z" transform="translate(0 -34.137)"/></g><g transform="translate(4.179 0.004)"><g transform="translate(0 0)"><path class="c" d="M116.949.785a2.666,2.666,0,0,0-3.771,0l-9.173,9.173a.7.7,0,0,0-.168.272l-1.393,4.179a.7.7,0,0,0,.66.917.707.707,0,0,0,.22-.036L107.5,13.9a.7.7,0,0,0,.272-.169l9.173-9.173A2.666,2.666,0,0,0,116.949.785Z" transform="translate(-102.409 -0.004)"/></g></g></g><g transform="translate(1131 -0.004)"><g transform="translate(0 1.397)"><path class="c" d="M16.018,42.494a.7.7,0,0,0-.7.7v6.964a.7.7,0,0,1-.7.7H2.089a.7.7,0,0,1-.7-.7V36.226a.7.7,0,0,1,.7-.7h8.357a.7.7,0,1,0,0-1.393H2.089A2.089,2.089,0,0,0,0,36.226V50.155a2.089,2.089,0,0,0,2.089,2.089H14.625a2.089,2.089,0,0,0,2.089-2.089V43.191A.7.7,0,0,0,16.018,42.494Z" transform="translate(0 -34.137)"/></g><g transform="translate(4.179 0.004)"><g transform="translate(0 0)"><path class="c" d="M116.949.785a2.666,2.666,0,0,0-3.771,0l-9.173,9.173a.7.7,0,0,0-.168.272l-1.393,4.179a.7.7,0,0,0,.66.917.707.707,0,0,0,.22-.036L107.5,13.9a.7.7,0,0,0,.272-.169l9.173-9.173A2.666,2.666,0,0,0,116.949.785Z" transform="translate(-102.409 -0.004)"/></g></g></g><g transform="translate(0 188.996)"><g transform="translate(0 1.397)"><path class="c" d="M16.018,42.494a.7.7,0,0,0-.7.7v6.964a.7.7,0,0,1-.7.7H2.089a.7.7,0,0,1-.7-.7V36.226a.7.7,0,0,1,.7-.7h8.357a.7.7,0,1,0,0-1.393H2.089A2.089,2.089,0,0,0,0,36.226V50.155a2.089,2.089,0,0,0,2.089,2.089H14.625a2.089,2.089,0,0,0,2.089-2.089V43.191A.7.7,0,0,0,16.018,42.494Z" transform="translate(0 -34.137)"/></g><g transform="translate(4.179 0.004)"><g transform="translate(0 0)"><path class="c" d="M116.949.785a2.666,2.666,0,0,0-3.771,0l-9.173,9.173a.7.7,0,0,0-.168.272l-1.393,4.179a.7.7,0,0,0,.66.917.707.707,0,0,0,.22-.036L107.5,13.9a.7.7,0,0,0,.272-.169l9.173-9.173A2.666,2.666,0,0,0,116.949.785Z" transform="translate(-102.409 -0.004)"/></g></g></g><g transform="translate(377 188.996)"><g transform="translate(0 1.397)"><path class="c" d="M16.018,42.494a.7.7,0,0,0-.7.7v6.964a.7.7,0,0,1-.7.7H2.089a.7.7,0,0,1-.7-.7V36.226a.7.7,0,0,1,.7-.7h8.357a.7.7,0,1,0,0-1.393H2.089A2.089,2.089,0,0,0,0,36.226V50.155a2.089,2.089,0,0,0,2.089,2.089H14.625a2.089,2.089,0,0,0,2.089-2.089V43.191A.7.7,0,0,0,16.018,42.494Z" transform="translate(0 -34.137)"/></g><g transform="translate(4.179 0.004)"><g transform="translate(0 0)"><path class="c" d="M116.949.785a2.666,2.666,0,0,0-3.771,0l-9.173,9.173a.7.7,0,0,0-.168.272l-1.393,4.179a.7.7,0,0,0,.66.917.707.707,0,0,0,.22-.036L107.5,13.9a.7.7,0,0,0,.272-.169l9.173-9.173A2.666,2.666,0,0,0,116.949.785Z" transform="translate(-102.409 -0.004)"/></g></g></g><g transform="translate(754 188.996)"><g transform="translate(0 1.397)"><path class="c" d="M16.018,42.494a.7.7,0,0,0-.7.7v6.964a.7.7,0,0,1-.7.7H2.089a.7.7,0,0,1-.7-.7V36.226a.7.7,0,0,1,.7-.7h8.357a.7.7,0,1,0,0-1.393H2.089A2.089,2.089,0,0,0,0,36.226V50.155a2.089,2.089,0,0,0,2.089,2.089H14.625a2.089,2.089,0,0,0,2.089-2.089V43.191A.7.7,0,0,0,16.018,42.494Z" transform="translate(0 -34.137)"/></g><g transform="translate(4.179 0.004)"><g transform="translate(0 0)"><path class="c" d="M116.949.785a2.666,2.666,0,0,0-3.771,0l-9.173,9.173a.7.7,0,0,0-.168.272l-1.393,4.179a.7.7,0,0,0,.66.917.707.707,0,0,0,.22-.036L107.5,13.9a.7.7,0,0,0,.272-.169l9.173-9.173A2.666,2.666,0,0,0,116.949.785Z" transform="translate(-102.409 -0.004)"/></g></g></g><g transform="translate(1131 188.996)"><g transform="translate(0 1.397)"><path class="c" d="M16.018,42.494a.7.7,0,0,0-.7.7v6.964a.7.7,0,0,1-.7.7H2.089a.7.7,0,0,1-.7-.7V36.226a.7.7,0,0,1,.7-.7h8.357a.7.7,0,1,0,0-1.393H2.089A2.089,2.089,0,0,0,0,36.226V50.155a2.089,2.089,0,0,0,2.089,2.089H14.625a2.089,2.089,0,0,0,2.089-2.089V43.191A.7.7,0,0,0,16.018,42.494Z" transform="translate(0 -34.137)"/></g><g transform="translate(4.179 0.004)"><g transform="translate(0 0)"><path class="c" d="M116.949.785a2.666,2.666,0,0,0-3.771,0l-9.173,9.173a.7.7,0,0,0-.168.272l-1.393,4.179a.7.7,0,0,0,.66.917.707.707,0,0,0,.22-.036L107.5,13.9a.7.7,0,0,0,.272-.169l9.173-9.173A2.666,2.666,0,0,0,116.949.785Z" transform="translate(-102.409 -0.004)"/></g></g></g></g></svg>